<?xml version="1.0" encoding="UTF-8" standalone="no"?>
<!-- Created with Inkscape (http://www.inkscape.org/) -->

<svg
   version="1.1"
   id="svg1"
   width="347"
   height="249"
   viewBox="0 0 347 249"
   sodipodi:docname="logoBlack.svg"
   inkscape:version="1.4.2 (2aeb623e1d, 2025-05-12)"
   xmlns:inkscape="http://www.inkscape.org/namespaces/inkscape"
   xmlns:sodipodi="http://sodipodi.sourceforge.net/DTD/sodipodi-0.dtd"
   xmlns="http://www.w3.org/2000/svg"
   xmlns:svg="http://www.w3.org/2000/svg">
  <sodipodi:namedview
     id="namedview1"
     pagecolor="#ffffff"
     bordercolor="#000000"
     borderopacity="0.25"
     inkscape:showpageshadow="2"
     inkscape:pageopacity="0.0"
     inkscape:pagecheckerboard="0"
     inkscape:deskcolor="#d1d1d1"
     inkscape:zoom="2.5220884"
     inkscape:cx="173.66561"
     inkscape:cy="124.5"
     inkscape:window-width="1600"
     inkscape:window-height="836"
     inkscape:window-x="0"
     inkscape:window-y="32"
     inkscape:window-maximized="1"
     inkscape:current-layer="svg1" />
  <defs
     id="defs1" />
  <g
     id="g1"
     style="fill:#55d400">
    <path
       style="fill:#55d400"
       d="m 185.15037,246.2913 c -27.27724,-3.9934 -57.35601,-18.85264 -65.79164,-32.50177 -4.84579,-7.84066 -4.28918,-15.39762 1.27704,-17.33801 6.59397,-2.29867 14.67472,-0.85903 42.54147,7.57902 27.78443,8.41312 39.30962,8.55003 44.75823,0.53167 3.50801,-5.1625 3.44143,-13.93529 -0.17437,-22.97336 -2.85027,-7.12455 -6.81464,-13.03295 -21.12124,-31.47865 -21.68392,-27.95734 -26.98776,-40.70635 -25.99053,-62.474267 0.5935,-12.95494 2.59708,-18.856741 9.96184,-29.343779 5.31506,-7.568364 19.72887,-22.913173 21.52299,-22.913173 0.55989,0 -0.84501,3.7125 -3.12202,8.25 -5.21498,10.392154 -6.59813,16.396861 -6.59813,28.644789 0,15.384249 3.50275,24.511438 15.64984,40.77914 3.76759,5.04565 10.57488,13.21608 15.12731,18.1565 19.58381,21.25286 33.02397,41.65867 37.61036,57.10274 2.10809,7.09867 2.10726,18.1852 -0.002,22.36649 -3.55149,7.04142 -8.24143,10.51215 -18.88584,13.9762 -5.0144,1.63185 -10.10666,2.05704 -31,2.58837 -13.75,0.34967 -25.5625,0.99983 -26.25,1.44479 -0.6875,0.44496 -1.25,1.62177 -1.25,2.61514 0,3.25191 3.8143,6.75636 11.97449,11.00176 10.50807,5.4669 10.50258,5.55884 -0.23813,3.9864 z m -25.47226,-52.74465 c -9.32022,-3.78578 -19.25705,-15.12972 -28.14448,-32.12989 -15.36201,-29.38496 -14.61469,-58.85701 2.29864,-90.650764 3.93228,-7.391916 16.49516,-24.806934 17.30853,-23.993566 0.16149,0.161496 -1.96755,4.751536 -4.7312,10.20009 -5.61248,11.065029 -7.62256,17.909459 -8.92978,30.406461 -1.54187,14.740099 0.2883,25.103349 6.54332,37.051259 3.19308,6.09922 6.44824,10.45839 22.36383,29.94874 6.91826,8.47215 12.91013,19.7095 13.71703,25.72534 1.62777,12.13595 -8.01654,18.48289 -20.42589,13.44233 z"
       id="path1" />
  </g>
</svg>
